<?xml version="1.0" encoding="utf-8"?>
<!-- Generator: Adobe Illustrator 16.0.0, SVG Export Plug-In . SVG Version: 6.00 Build 0)  -->
<!DOCTYPE svg PUBLIC "-//W3C//DTD SVG 1.1//EN" "http://www.w3.org/Graphics/SVG/1.1/DTD/svg11.dtd">
<svg version="1.1" id="Capa_1" xmlns="http://www.w3.org/2000/svg" xmlns:xlink="http://www.w3.org/1999/xlink" x="0px" y="0px"
	 width="120px" height="74px" viewBox="0 0 120 74" enable-background="new 0 0 120 74" xml:space="preserve">
<path fill="#50CD89" d="M77.781,3.471l10.961,34.126c0.621,1.937-0.822,3.918-2.856,3.918h-6.925c-2.178,0-4.105-1.411-4.766-3.487
	L63.362,3.908C62.748,1.974,64.191,0,66.222,0h6.8C75.193,0,77.117,1.403,77.781,3.471z"/>
<path fill="#FFFFFF" d="M64.211,28.049L56.202,2.394C55.757,0.97,54.438,0,52.946,0c-2.075,0-3.787,1.626-3.893,3.699L48.101,22.41
	c-0.046,0.912,0.063,1.825,0.325,2.7l4.267,14.265c0.38,1.27,1.549,2.141,2.875,2.141h4.059c1.306,0,2.462-0.846,2.858-2.09
	l1.709-5.359C64.816,32.11,64.823,30.009,64.211,28.049z"/>
<linearGradient id="SVGID_1_" gradientUnits="userSpaceOnUse" x1="51.2969" y1="55.1699" x2="60.0851" y2="52.4425" gradientTransform="matrix(1 0 0 -1 0 75)">
	<stop  offset="0" style="stop-color:#18175A;stop-opacity:0.42"/>
	<stop  offset="0.9115" style="stop-color:#65719B;stop-opacity:0"/>
</linearGradient>
<path fill="url(#SVGID_1_)" d="M64.211,28.049L56.202,2.394C55.757,0.97,54.438,0,52.946,0c-2.075,0-3.787,1.626-3.893,3.699
	L48.101,22.41c-0.046,0.912,0.063,1.825,0.325,2.7l4.267,14.265c0.38,1.27,1.549,2.141,2.875,2.141h4.059
	c1.306,0,2.462-0.846,2.858-2.09l1.709-5.359C64.816,32.11,64.823,30.009,64.211,28.049z"/>
<path fill="none" stroke="#000000" d="M64.211,28.049L56.202,2.394C55.757,0.97,54.438,0,52.946,0c-2.075,0-3.787,1.626-3.893,3.699
	L48.101,22.41c-0.046,0.912,0.063,1.825,0.325,2.7l4.267,14.265c0.38,1.27,1.549,2.141,2.875,2.141h4.059
	c1.306,0,2.462-0.846,2.858-2.09l1.709-5.359C64.816,32.11,64.823,30.009,64.211,28.049z"/>
<path fill="#50CD89" d="M47.053,0h6.472c2.015,0,3.457,1.947,2.87,3.875L45.911,38.275c-0.641,2.104-2.583,3.543-4.783,3.543h-6.472
	c-2.015,0-3.457-1.947-2.87-3.875L42.271,3.542C42.912,1.438,44.853,0,47.053,0z"/>
<text transform="matrix(1.0797 0 0 1 8 64.1074)" fill="#FFFFFF" font-family="'Calibri'" font-size="23.7022">BREACKTS</text>
</svg>
