<?xml version="1.0" encoding="utf-8"?>
<!-- Generator: Adobe Illustrator 16.0.0, SVG Export Plug-In . SVG Version: 6.00 Build 0)  -->
<!DOCTYPE svg PUBLIC "-//W3C//DTD SVG 1.1//EN" "http://www.w3.org/Graphics/SVG/1.1/DTD/svg11.dtd">
<svg version="1.1" id="Capa_1" xmlns="http://www.w3.org/2000/svg" xmlns:xlink="http://www.w3.org/1999/xlink" x="0px" y="0px"
	 width="164px" height="26px" viewBox="0 0 164 26" enable-background="new 0 0 164 26" xml:space="preserve">
<path fill="#00A3FF" d="M23.225,1.276c0.123-0.139,0.191-0.321,0.192-0.509c0-0.202-0.078-0.396-0.216-0.54S22.874,0.002,22.677,0
	h-0.009L10.311,0.006h-0.009c-0.175,0-0.349,0.038-0.509,0.109c-0.161,0.072-0.305,0.178-0.424,0.31
	C8.552,1.272,6.463,3.409,2.694,7.075c-5.04,4.903-1.462,9.743-1.462,9.743l4.609,4.738c-1.082-1.188,0.246-2.754,0.246-2.754
	l17.09-17.472c0.013-0.012,0.025-0.025,0.037-0.038l0.012-0.013L23.225,1.276z"/>
<path fill="#3F4254" d="M23.802,24.72l-0.004-0.005L13.722,14.37c-0.071-0.072-0.156-0.13-0.249-0.168
	c-0.093-0.038-0.192-0.058-0.292-0.057s-0.199,0.022-0.291,0.063c-0.092,0.04-0.176,0.1-0.246,0.173l0,0L7.315,19.83
	c-1.352,1.668-0.54,2.527-0.54,2.527l3.139,3.344c0.08,0.093,0.179,0.168,0.29,0.219c0.11,0.051,0.23,0.077,0.352,0.076h12.673
	c0.008,0,0.016,0,0.025,0c0.143,0,0.284-0.044,0.403-0.125c0.12-0.081,0.215-0.195,0.273-0.33s0.077-0.285,0.054-0.43
	C23.961,24.965,23.898,24.83,23.802,24.72L23.802,24.72z"/>
<text transform="matrix(1.0797 0 0 1 31.834 22.5967)" font-family="'Calibri'" font-size="27.247">BREACKTS</text>
</svg>
